<?xml version="1.0" encoding="utf-8"?>
<!-- Generator: Adobe Illustrator 16.0.0, SVG Export Plug-In . SVG Version: 6.00 Build 0)  -->
<!DOCTYPE svg PUBLIC "-//W3C//DTD SVG 1.1//EN" "http://www.w3.org/Graphics/SVG/1.1/DTD/svg11.dtd">
<svg version="1.1" id="Layer_1" xmlns="http://www.w3.org/2000/svg" xmlns:xlink="http://www.w3.org/1999/xlink" x="0px" y="0px"
	 width="22.922px" height="11.526px" viewBox="0 0 22.922 11.526" enable-background="new 0 0 22.922 11.526" xml:space="preserve">
<g>
	<path fill="#190404" d="M22.922,5.764c0-0.073-0.016-0.143-0.04-0.206c-0.032-0.08-0.073-0.142-0.125-0.195L17.59,0.166
		c-0.22-0.222-0.574-0.222-0.794,0c-0.22,0.22-0.22,0.578,0,0.8l4.207,4.233H0.563C0.25,5.2,0,5.45,0,5.763
		c0,0.312,0.25,0.565,0.562,0.565h20.44l-4.206,4.232c-0.22,0.221-0.22,0.578,0,0.801c0.11,0.109,0.254,0.164,0.397,0.164
		s0.287-0.055,0.397-0.166l5.167-5.196c0.053-0.053,0.094-0.116,0.122-0.186c0.026-0.074,0.042-0.143,0.042-0.216V5.764z"/>
</g>
</svg>
