<?xml version="1.0" encoding="UTF-8" standalone="no"?>
<svg width="16px" height="16px" viewBox="0 0 16 16" version="1.1" xmlns="http://www.w3.org/2000/svg" xmlns:xlink="http://www.w3.org/1999/xlink">
    <!-- Generator: Sketch 39.1 (31720) - http://www.bohemiancoding.com/sketch -->
    <title>Fill-1</title>
    <desc>Created with Sketch.</desc>
    <defs></defs>
    <g id="Page-1" stroke="none" stroke-width="1" fill="none" fill-rule="evenodd">
        <g id="clock" transform="translate(-1.000000, -1.000000)" fill="#FAFAFA">
            <path d="M12.0658,12.2914 C11.9088,12.2914 11.7508,12.2374 11.6228,12.1254 L8.1978,9.1524 C8.0508,9.0244 7.9658,8.8394 7.9648,8.6444 L7.9498,4.8934 C7.9478,4.5204 8.2498,4.2154 8.6238,4.2144 L8.6258,4.2144 C8.9988,4.2144 9.3018,4.5154 9.3028,4.8884 L9.3168,8.3314 L12.5098,11.1034 C12.7918,11.3484 12.8218,11.7764 12.5768,12.0584 C12.4428,12.2124 12.2548,12.2914 12.0658,12.2914" id="Fill-4"></path>
            <path d="M8.6416,2.3536 C5.1746,2.3536 2.3536,5.1746 2.3536,8.6416 C2.3536,12.1086 5.1746,14.9296 8.6416,14.9296 C12.1086,14.9296 14.9296,12.1086 14.9296,8.6416 C14.9296,5.1746 12.1086,2.3536 8.6416,2.3536 M8.6416,16.2836 C4.4276,16.2836 0.9996,12.8556 0.9996,8.6416 C0.9996,4.4286 4.4276,0.9996 8.6416,0.9996 C12.8556,0.9996 16.2836,4.4286 16.2836,8.6416 C16.2836,12.8556 12.8556,16.2836 8.6416,16.2836" id="Fill-1"></path>
        </g>
    </g>
</svg>