<?xml version="1.0" encoding="UTF-8" standalone="no"?>
<svg width="26px" height="26px" viewBox="0 0 26 26" version="1.1" xmlns="http://www.w3.org/2000/svg" xmlns:xlink="http://www.w3.org/1999/xlink">
    <!-- Generator: Sketch 39.1 (31720) - http://www.bohemiancoding.com/sketch -->
    <title>Fill 1</title>
    <desc>Created with Sketch.</desc>
    <defs></defs>
    <g id="Page-1" stroke="none" stroke-width="1" fill="none" fill-rule="evenodd">
        <g id="Submit" transform="translate(-1139.000000, -223.000000)" fill="#333333">
            <g id="Page-1" transform="translate(1139.000000, 223.000000)">
                <path d="M14.2913,12.5503 L24.7403,2.1013 C25.2213,1.6213 25.2213,0.8413 24.7403,0.3603 C24.2593,-0.1207 23.4803,-0.1207 22.9993,0.3603 L12.5503,10.8093 L2.1013,0.3603 C1.6203,-0.1207 0.8413,-0.1207 0.3603,0.3603 C-0.1207,0.8413 -0.1207,1.6213 0.3603,2.1013 L10.8093,12.5503 L0.3603,22.9993 C-0.1207,23.4793 -0.1207,24.2593 0.3603,24.7403 C0.6013,24.9803 0.9163,25.1003 1.2313,25.1003 C1.5463,25.1003 1.8613,24.9803 2.1013,24.7403 L12.5503,14.2913 L22.9993,24.7403 C23.2393,24.9803 23.5543,25.1003 23.8693,25.1003 C24.1843,25.1003 24.4993,24.9803 24.7403,24.7403 C25.2213,24.2593 25.2213,23.4793 24.7403,22.9993 L14.2913,12.5503 Z" id="Fill-1"></path>
            </g>
        </g>
    </g>
</svg>