<?xml version="1.0" ?><!DOCTYPE svg  PUBLIC '-//W3C//DTD SVG 1.1//EN'  'http://www.w3.org/Graphics/SVG/1.1/DTD/svg11.dtd'><svg enable-background="new 0 0 512 512" height="512px" id="Слой_1" version="1.1" viewBox="0 0 512 512" width="512px" xml:space="preserve" xmlns="http://www.w3.org/2000/svg" xmlns:xlink="http://www.w3.org/1999/xlink"><g id="Flickr_2_"><path d="M117.758,138.238c-65.044,0-117.745,52.748-117.745,117.777s52.701,117.746,117.745,117.746   c65.027,0,117.744-52.717,117.744-117.746S182.784,138.238,117.758,138.238z"/><path d="M394.228,138.238c-65.028,0-117.76,52.748-117.76,117.777s52.729,117.746,117.76,117.746   c65.029,0,117.76-52.717,117.76-117.746S459.257,138.238,394.228,138.238z M449.74,311.514c-14.843,14.844-34.529,23-55.513,23   c-20.968,0-40.688-8.156-55.515-23c-14.825-14.812-22.997-34.529-22.997-55.498c0-20.999,8.172-40.717,22.997-55.529   c14.827-14.812,34.547-23,55.515-23c20.981,0,40.67,8.188,55.513,23c14.813,14.813,22.999,34.53,22.999,55.529   C472.739,276.984,464.553,296.702,449.74,311.514z"/></g></svg>