<?xml version="1.0" encoding="utf-8"?>
<!-- Generator: Adobe Illustrator 16.0.0, SVG Export Plug-In . SVG Version: 6.00 Build 0)  -->
<!DOCTYPE svg PUBLIC "-//W3C//DTD SVG 1.1//EN" "http://www.w3.org/Graphics/SVG/1.1/DTD/svg11.dtd">
<svg version="1.1" id="Google_alt" xmlns="http://www.w3.org/2000/svg" xmlns:xlink="http://www.w3.org/1999/xlink" x="0px" y="0px"
	 width="841.896px" height="841.896px" viewBox="174.326 -0.002 841.896 841.896"
	 enable-background="new 174.326 -0.002 841.896 841.896" xml:space="preserve">
<title></title>
<path d="M861.51,201.011c0.006,26.902-21.798,48.714-48.699,48.72s-48.715-21.798-48.72-48.7
	c-0.006-26.902,21.798-48.714,48.699-48.72c0.007,0,0.014,0,0.021,0C839.704,152.316,861.505,174.117,861.51,201.011z
	 M1016.223,420.946l-0.01,0.613l-2.767,176.607c-1.495,132.445-108.498,239.448-240.942,240.943l-177.229,2.784l-0.613-0.013
	l-176.607-2.758c-132.447-1.495-239.453-108.496-240.955-240.942l-2.772-177.235l0.013-0.613l2.758-176.614
	C178.603,111.274,285.607,4.275,418.052,2.776l177.223-2.778l0.613,0.012l176.608,2.758c132.442,1.5,239.443,108.5,240.942,240.943
	L1016.223,420.946z M937.823,420.946l-2.755-175.997c-1.017-90.038-73.759-162.781-163.797-163.799l-175.996-2.749l-175.996,2.749
	c-90.038,1.02-162.779,73.761-163.801,163.799l-2.748,175.997l2.748,175.996c1.018,90.039,73.762,162.782,163.801,163.799
	l175.996,2.748l175.996-2.748c90.04-1.015,162.783-73.759,163.797-163.799L937.823,420.946z M811.442,420.946
	c0,119.387-96.782,216.169-216.169,216.169s-216.169-96.782-216.169-216.169s96.782-216.169,216.169-216.169
	c0.001,0,0.001,0,0.002,0C714.606,204.912,811.308,301.615,811.442,420.946z M733.051,420.946
	c0-76.093-61.686-137.778-137.778-137.778s-137.778,61.686-137.778,137.778s61.686,137.778,137.778,137.778c0.001,0,0.001,0,0.002,0
	c76.056-0.089,137.688-61.723,137.774-137.778H733.051z"/>
</svg>
