<?xml version="1.0" encoding="UTF-8" standalone="no"?>
<svg width="18px" height="15px" viewBox="0 0 18 15" version="1.1" xmlns="http://www.w3.org/2000/svg" xmlns:xlink="http://www.w3.org/1999/xlink">
    <!-- Generator: Sketch 39.1 (31720) - http://www.bohemiancoding.com/sketch -->
    <title>link</title>
    <desc>Created with Sketch.</desc>
    <defs></defs>
    <g id="Page-1" stroke="none" stroke-width="1" fill="none" fill-rule="evenodd">
        <g id="link" transform="translate(0.000000, -1.000000)" fill="#110303">
            <g id="Group">
                <path d="M2.194,14.1231 C3.171,14.9141 4.609,14.7641 5.401,13.7891 L9.35,8.9171 C10.142,7.9401 9.992,6.5021 9.015,5.7111 C8.544,5.3291 7.951,5.1541 7.342,5.2181 C6.734,5.2811 6.189,5.5751 5.809,6.0461 L1.859,10.9181 C1.479,11.3871 1.303,11.9811 1.366,12.5901 C1.43,13.1971 1.725,13.7411 2.194,14.1231 L2.194,14.1231 L2.194,14.1231 Z M3.626,15.9841 C2.822,15.9841 2.014,15.7181 1.342,15.1731 L1.342,15.1731 C0.59,14.5651 0.122,13.6971 0.021,12.7301 C-0.081,11.7621 0.198,10.8151 0.809,10.0641 L4.758,5.1931 C5.366,4.4421 6.235,3.9731 7.202,3.8711 C8.17,3.7711 9.116,4.0501 9.868,4.6591 C11.425,5.9211 11.663,8.2131 10.402,9.7691 L6.453,14.6401 C5.735,15.5241 4.686,15.9841 3.626,15.9841 L3.626,15.9841 L3.626,15.9841 Z" id="Fill-1"></path>
                <path d="M13.44,2.3521 C12.776,2.3521 12.117,2.6401 11.667,3.1951 L7.718,8.0661 C7.337,8.5361 7.162,9.1301 7.225,9.7381 C7.289,10.3461 7.583,10.8911 8.054,11.2721 C8.524,11.6541 9.117,11.8301 9.726,11.7651 C10.334,11.7031 10.879,11.4081 11.26,10.9371 L15.209,6.0661 C16,5.0911 15.85,3.6521 14.874,2.8601 C14.452,2.5181 13.944,2.3521 13.44,2.3521 M9.479,13.1331 C8.649,13.1331 7.852,12.8521 7.201,12.3241 C6.45,11.7161 5.98,10.8471 5.879,9.8791 C5.778,8.9121 6.058,7.9661 6.667,7.2131 L10.616,2.3431 C11.877,0.7871 14.17,0.5471 15.726,1.8091 C16.476,2.4171 16.947,3.2861 17.048,4.2531 C17.149,5.2211 16.868,6.1671 16.259,6.9191 L12.311,11.7911 C11.703,12.5411 10.834,13.0111 9.867,13.1111 C9.737,13.1251 9.608,13.1331 9.479,13.1331" id="Fill-4"></path>
            </g>
        </g>
    </g>
</svg>