<?xml version="1.0" encoding="UTF-8" standalone="no"?>
<svg width="18px" height="17px" viewBox="0 0 18 17" version="1.1" xmlns="http://www.w3.org/2000/svg" xmlns:xlink="http://www.w3.org/1999/xlink">
    <!-- Generator: Sketch 39.1 (31720) - http://www.bohemiancoding.com/sketch -->
    <title>pocket</title>
    <desc>Created with Sketch.</desc>
    <defs></defs>
    <g id="Product" stroke="none" stroke-width="1" fill="none" fill-rule="evenodd">
        <g id="Desktop" transform="translate(-1111.000000, -838.000000)">
            <g id="Share" transform="translate(752.000000, 825.000000)">
                <g id="Group-Copy-4" transform="translate(344.000000, 0.000000)">
                    <g id="pocket" transform="translate(15.000000, 13.000000)">
                        <path d="M15.3826714,0.1071 L2.61741429,0.1071 C1.36281429,0.1071 0.345814286,1.13228571 0.345814286,2.39614286 L0.345814286,8.73758571 C0.345814286,8.85522857 0.354685714,8.97081429 0.372,9.08387143 C0.354257143,9.25272857 0.345814286,9.42355714 0.345814286,9.59592857 C0.345814286,13.2308571 4.22022857,16.1786571 8.99991429,16.1786571 C13.7795571,16.1786571 17.6541857,13.2308571 17.6541857,9.59592857 C17.6541857,9.42342857 17.6449286,9.25272857 17.6279143,9.08387143 C17.6449286,8.9709 17.6541857,8.85522857 17.6541857,8.73758571 L17.6541857,2.39622857 C17.6541857,1.13198571 16.6361143,0.1071 15.3826714,0.1071 L15.3826714,0.1071 L15.3826714,0.1071 Z" id="Shape" fill="#4A4A4A"></path>
                        <path d="M14.307,6.48214286 L14.307,6.48214286 L9.83717143,10.9515429 C9.61007143,11.1786 9.31174286,11.2904571 9.01405714,11.2879286 C8.70711429,11.2984714 8.39695714,11.1864857 8.16201429,10.9515429 L3.69321429,6.48214286 C3.24415714,6.03334286 3.24527143,5.30532857 3.69321429,4.8573 C4.14167143,4.40832857 4.86844286,4.40764286 5.31805714,4.8573 L9,8.53945714 L12.6821571,4.8573 C13.1297571,4.40832857 13.8591429,4.40948571 14.307,4.8573 C14.7561429,5.30597143 14.7561429,6.03265714 14.307,6.48218571 L14.307,6.48214286 L14.307,6.48214286 L14.307,6.48214286 Z" id="Path" fill="#FFFFFF"></path>
                    </g>
                </g>
            </g>
        </g>
    </g>
</svg>