<?xml version="1.0" encoding="UTF-8"?>
<svg width="21px" height="12px" viewBox="0 0 21 12" version="1.1" xmlns="http://www.w3.org/2000/svg" xmlns:xlink="http://www.w3.org/1999/xlink">
    <!-- Generator: Sketch 41.2 (35397) - http://www.bohemiancoding.com/sketch -->
    <title>Page 1</title>
    <desc>Created with Sketch.</desc>
    <defs></defs>
    <g id="Page-1" stroke="none" stroke-width="1" fill="none" fill-rule="evenodd">
        <g id="Item" transform="translate(-250.000000, -800.000000)" fill="#828282">
            <g id="Comments" transform="translate(0.000000, 559.000000)">
                <g id="Reply" transform="translate(250.000000, 235.000000)">
                    <g id="Page-1" transform="translate(0.000000, 6.000000)">
                        <path d="M1.9184,5.6704 L6.1254,1.4374 C6.3454,1.2164 6.3454,0.8584 6.1254,0.6374 C6.0154,0.5264 5.8714,0.4714 5.7284,0.4714 C5.5844,0.4714 5.4404,0.5264 5.3304,0.6374 L0.1654,5.8354 C0.1134,5.8884 0.0714,5.9504 0.0424,6.0214 C0.0154,6.0934 0.0004,6.1624 0.0004,6.2364 C0.0004,6.3094 0.0154,6.3784 0.0404,6.4414 C0.0714,6.5204 0.1134,6.5844 0.1654,6.6364 L5.3304,11.8344 C5.5504,12.0554 5.9054,12.0554 6.1254,11.8344 C6.3454,11.6134 6.3454,11.2554 6.1254,11.0344 L1.9184,6.8014" id="Fill-1"></path>
                        <path d="M15.3222,6.7972 L1.4372,6.7972 C1.1432,6.7972 0.9052,6.5592 0.9052,6.2652 C0.9052,5.9702 1.1432,5.7322 1.4372,5.7322 L15.3222,5.7322 C17.3762,5.7322 19.0482,4.0612 19.0482,2.0062 L19.0482,0.7382 C19.0482,0.4442 19.2862,0.2052 19.5802,0.2052 C19.8752,0.2052 20.1132,0.4442 20.1132,0.7382 L20.1132,2.0062 C20.1132,4.6482 17.9642,6.7972 15.3222,6.7972" id="Fill-3"></path>
                    </g>
                </g>
            </g>
        </g>
    </g>
</svg>