<?xml version="1.0" encoding="UTF-8" standalone="no"?>
<svg width="22px" height="22px" viewBox="0 0 22 22" version="1.1" xmlns="http://www.w3.org/2000/svg" xmlns:xlink="http://www.w3.org/1999/xlink">
    <!-- Generator: Sketch 39.1 (31720) - http://www.bohemiancoding.com/sketch -->
    <title>Page 1</title>
    <desc>Created with Sketch.</desc>
    <defs></defs>
    <g id="Page-1" stroke="none" stroke-width="1" fill="none" fill-rule="evenodd">
        <g id="Frontpage" transform="translate(-1054.000000, -42.000000)" fill="#828282">
            <g id="Page-1" transform="translate(1054.000000, 42.000000)">
                <path d="M13.6677,13.6677 C11.1077,16.2277 6.9417,16.2287 4.3817,13.6677 C1.8207,11.1077 1.8207,6.9417 4.3817,4.3817 C5.6617,3.1017 7.3427,2.4607 9.0247,2.4607 C10.7057,2.4607 12.3877,3.1017 13.6677,4.3817 C16.2277,6.9417 16.2277,11.1077 13.6677,13.6677 M21.2107,19.4697 L16.2127,14.4717 C18.8947,10.9357 18.6327,5.8647 15.4087,2.6407 C11.8877,-0.8803 6.1607,-0.8803 2.6407,2.6407 C-0.8803,6.1607 -0.8803,11.8887 2.6407,15.4087 C4.4007,17.1687 6.7127,18.0487 9.0247,18.0487 C10.9477,18.0487 12.8657,17.4307 14.4717,16.2127 L19.4697,21.2107 C19.7097,21.4507 20.0247,21.5707 20.3397,21.5707 C20.6547,21.5707 20.9697,21.4507 21.2107,21.2107 C21.6917,20.7297 21.6917,19.9497 21.2107,19.4697" id="Fill-1"></path>
            </g>
        </g>
    </g>
</svg>