<?xml version="1.0" encoding="UTF-8" standalone="no"?>
<svg width="17px" height="17px" viewBox="0 0 17 17" version="1.1" xmlns="http://www.w3.org/2000/svg" xmlns:xlink="http://www.w3.org/1999/xlink">
    <!-- Generator: Sketch 39.1 (31720) - http://www.bohemiancoding.com/sketch -->
    <title>Page 1</title>
    <desc>Created with Sketch.</desc>
    <defs></defs>
    <g id="Page-1" stroke="none" stroke-width="1" fill="none" fill-rule="evenodd">
        <g id="Item" transform="translate(-258.000000, -178.000000)" fill="#333333">
            <g id="Page-1" transform="translate(258.000000, 177.000000)">
                <g id="Group-3" transform="translate(0.000000, 0.818500)">
                    <path d="M14.1836,1.6941 C14.1316,1.6941 14.0786,1.6981 14.0256,1.7051 L10.4676,2.1991 C9.7656,2.2971 9.1036,2.6271 8.6026,3.1281 L1.6976,10.0321 C1.4486,10.2811 1.4486,10.6851 1.6976,10.9331 L6.0666,15.3031 C6.3156,15.5511 6.7186,15.5511 6.9676,15.3031 L13.8726,8.3981 C14.3736,7.8971 14.7036,7.2341 14.8006,6.5321 L15.2946,2.9741 C15.3436,2.6221 15.2276,2.2761 14.9766,2.0241 C14.7626,1.8101 14.4796,1.6941 14.1836,1.6941 M6.5176,17.0001 C5.9426,17.0001 5.4026,16.7771 4.9976,16.3721 L0.6276,12.0021 C0.2226,11.5981 -0.0004,11.0581 -0.0004,10.4831 C-0.0004,9.9081 0.2226,9.3681 0.6276,8.9631 L7.5326,2.0591 C8.2646,1.3261 9.2336,0.8441 10.2596,0.7011 L13.8176,0.2071 C14.6426,0.0931 15.4556,0.3651 16.0456,0.9551 C16.6356,1.5441 16.9076,2.3561 16.7926,3.1831 L16.2986,6.7401 C16.1556,7.7661 15.6736,8.7351 14.9416,9.4671 L8.0366,16.3721 C7.6326,16.7771 7.0926,17.0001 6.5176,17.0001" id="Fill-1"></path>
                </g>
                <path d="M13.2012,5.8607 C13.5442,5.5177 13.5442,4.9607 13.2012,4.6177 C12.8582,4.2737 12.3012,4.2737 11.9582,4.6177 C11.6142,4.9607 11.6142,5.5177 11.9582,5.8607 C12.3012,6.2037 12.8582,6.2037 13.2012,5.8607" id="Fill-4"></path>
            </g>
        </g>
    </g>
</svg>