<?xml version="1.0" encoding="UTF-8" standalone="no"?>
<svg width="20px" height="18px" viewBox="0 0 20 18" version="1.1" xmlns="http://www.w3.org/2000/svg" xmlns:xlink="http://www.w3.org/1999/xlink">
    <!-- Generator: Sketch 39.1 (31720) - http://www.bohemiancoding.com/sketch -->
    <title>view</title>
    <desc>Created with Sketch.</desc>
    <defs></defs>
    <g id="Page-1" stroke="none" stroke-width="1" fill="none" fill-rule="evenodd">
        <g id="view" transform="translate(0.000000, 2.000000)" fill="#FAFAFA">
            <g id="Page-1">
                <g id="view">
                    <path d="M1.4139,6.8241 C2.9129,10.1571 6.2039,12.2951 9.8749,12.2951 C13.5469,12.2951 16.8379,10.1571 18.3369,6.8241 C16.8379,3.4911 13.5469,1.3531 9.8749,1.3531 C6.2039,1.3531 2.9129,3.4911 1.4139,6.8241 M9.8749,13.6481 C5.5599,13.6481 1.7039,11.0711 0.0519,7.0831 C-0.0171,6.9171 -0.0171,6.7311 0.0519,6.5651 C1.7039,2.5771 5.5599,0.0001 9.8749,0.0001 C14.1909,0.0001 18.0469,2.5771 19.6989,6.5651 C19.7679,6.7311 19.7679,6.9171 19.6989,7.0831 C18.0469,11.0711 14.1909,13.6481 9.8749,13.6481" id="Fill-1"></path>
                    <path d="M9.8753,4.3144 C8.4913,4.3144 7.3653,5.4404 7.3653,6.8244 C7.3653,8.2084 8.4913,9.3334 9.8753,9.3334 C11.2593,9.3334 12.3853,8.2084 12.3853,6.8244 C12.3853,5.4404 11.2593,4.3144 9.8753,4.3144 M9.8753,10.6874 C7.7453,10.6874 6.0123,8.9544 6.0123,6.8244 C6.0123,4.6944 7.7453,2.9604 9.8753,2.9604 C12.0053,2.9604 13.7383,4.6944 13.7383,6.8244 C13.7383,8.9544 12.0053,10.6874 9.8753,10.6874" id="Fill-4"></path>
                </g>
            </g>
        </g>
    </g>
</svg>